PathFileType	4	(X/Y/Z)	/Users/itak/Documents/Research/Walk-IL/dataset/trc/00386_00012.trc
DataRate	CameraRate	NumFrames	NumMarkers	Units	OrigDataRate	OrigDataStartFrame	OrigNumFrames
100.000000	100.000000	4	54	mm	100.000000	216	578
Frame#	Time	RPSI			LPSI			L3			STRN			T10			C7			CLAV			RBAK			LBAK			LSHO			LUPA			LAEL			LAOL			LWTS			LWPS			LFRA			LIFD			LHPS			LHTS			RSHO			RUPA			RAEL			RAOL			RWTS			RWPS			RFRA			RIFD			RHTS			RHPS			RBHD			LFHD			RFHD			LBHD			RHIP			RASI			LASI			LKNE			LTHI			LANK			LTIP			LTOE			LMT1			LMT5			LHEE			RKNE			RTHI			RANK			RTIP			RTOE			RMT1			RMT5			RHEE			LHIP			*53			
		X1	Y1	Z1	X2	Y2	Z2	X3	Y3	Z3	X4	Y4	Z4	X5	Y5	Z5	X6	Y6	Z6	X7	Y7	Z7	X8	Y8	Z8	X9	Y9	Z9	X10	Y10	Z10	X11	Y11	Z11	X12	Y12	Z12	X13	Y13	Z13	X14	Y14	Z14	X15	Y15	Z15	X16	Y16	Z16	X17	Y17	Z17	X18	Y18	Z18	X19	Y19	Z19	X20	Y20	Z20	X21	Y21	Z21	X22	Y22	Z22	X23	Y23	Z23	X24	Y24	Z24	X25	Y25	Z25	X26	Y26	Z26	X27	Y27	Z27	X28	Y28	Z28	X29	Y29	Z29	X30	Y30	Z30	X31	Y31	Z31	X32	Y32	Z32	X33	Y33	Z33	X34	Y34	Z34	X35	Y35	Z35	X36	Y36	Z36	X37	Y37	Z37	X38	Y38	Z38	X39	Y39	Z39	X40	Y40	Z40	X41	Y41	Z41	X42	Y42	Z42	X43	Y43	Z43	X44	Y44	Z44	X45	Y45	Z45	X46	Y46	Z46	X47	Y47	Z47	X48	Y48	Z48	X49	Y49	Z49	X50	Y50	Z50	X51	Y51	Z51	X52	Y52	Z52	X53	Y53	Z53	X54	Y54	Z54	

217	2.16	885.32470703125	972.233642578125	-9.550978660583496	878.1336669921875	963.103515625	-141.971435546875	890.0701904296875	1053.812255859375	-68.09197998046875	1135.149291992188	1211.59033203125	-62.66738128662109	886.8699340820312	1155.49755859375	-67.17022705078125	918.1236572265625	1405.7822265625	-67.27452087402344	1077.1171875	1328.632446289062	-61.22624588012695	879.2675170898438	1256.208862304688	-3.767322301864624	907.7432250976562	1371.171020507812	-173.0470275878906	997.5176391601562	1388.669067382812	-221.7598419189453	978.0626220703125	1272.79052734375	-294.6587524414062	1009.399719238281	1075.927124023438	-315.2928466796875	938.7615966796875	1053.447998046875	-271.2122192382812	1118.804077148438	883.0064697265625	-240.8906555175781	1088.977294921875	857.8304443359375	-313.7251586914062	1041.282104492188	975.4835205078125	-317.3834838867188	1163.188110351562	711.1243896484375	-240.5388793945312	1120.35986328125	780.005126953125	-300.6367797851562	1163.625854492188	795.6409301757812	-255.0618133544922	978.9301147460938	1379.505004882812	93.51170349121094	970.8466796875	1312.248046875	151.6664886474609	986.7824096679688	1049.738647460938	181.6778106689453	952.7152099609375	1042.523193359375	93.99826812744141	1114.398559570312	840.0259399414062	126.2036514282227	1081.402709960938	824.995361328125	190.9188690185547	1015.896362304688	984.1861572265625	190.9472198486328	1124.04443359375	667.993896484375	123.2723083496094	1140.92138671875	736.7982177734375	140.0059051513672	1088.758911132812	735.795166015625	185.8945922851562	968.5821533203125	1599.322509765625	14.04803466796875	1105.8994140625	1592.453247070312	-130.3509674072266	1101.500366210938	1604.353881835938	-8.009884834289551	957.158935546875	1583.110595703125	-146.2399444580078	972.044921875	949.3500366210938	104.7365798950195	1102.662719726562	963.8585205078125	50.58072280883789	1083.509399414062	969.5194702148438	-211.3965911865234	1127.26318359375	484.0628051757812	-237.14501953125	1087.422607421875	618.2319946289062	-247.9179840087891	966.1909790039062	52.65493774414062	-223.1145782470703	1041.67822265625	261.8752746582031	-245.1135711669922	1175.881591796875	57.57987976074219	-161.2755279541016	1099.713500976562	56.52632141113281	-129.0138244628906	1092.394653320312	41.03486251831055	-233.1578826904297	927.46826171875	56.71452331542969	-166.7887268066406	1058.861938476562	464.9759826660156	69.21575927734375	1067.989135742188	729.9696044921875	100.0553665161133	1049.419189453125	47.63309478759766	17.96599388122559	1080.501953125	341.3681335449219	46.89297485351562	1228.123779296875	25.21943664550781	-42.64716720581055	1150.37353515625	29.05926513671875	-75.17379760742188	1132.159301757812	39.64507293701172	22.47422218322754	974.5520629882812	31.43015480041504	-32.8293571472168	965.2320556640625	963.0848999023438	-255.1249237060547	nan	nan	nan	
218	2.17	881.415283203125	971.7079467773438	-8.955680847167969	873.675537109375	962.7251586914062	-141.4201202392578	886.2083740234375	1053.491943359375	-67.71365356445312	1130.972045898438	1211.755737304688	-62.49172592163086	882.222900390625	1155.38623046875	-66.68730163574219	913.7088012695312	1405.656494140625	-66.83531951904297	1072.714721679688	1328.677734375	-60.96102523803711	875.04443359375	1256.028686523438	-3.350746393203735	903.2783203125	1371.134887695312	-172.6238250732422	992.9458618164062	1388.661987304688	-221.4151763916016	973.3402709960938	1272.833129882812	-294.324462890625	1004.185485839844	1075.825561523438	-315.1676940917969	933.9430541992188	1053.480346679688	-270.5805358886719	1114.316162109375	883.1242065429688	-241.4123382568359	1083.527465820312	857.54638671875	-313.708984375	1036.038818359375	975.3373413085938	-317.3490600585938	1158.874145507812	711.43212890625	-240.9425659179688	1115.012451171875	779.807861328125	-300.6099548339844	1158.91162109375	795.6426391601562	-255.7336578369141	974.5286865234375	1379.397338867188	93.83757781982422	966.5599365234375	1312.088989257812	151.9718475341797	983.0626220703125	1049.684692382812	182.1894378662109	949.0244140625	1042.243041992188	94.51150512695312	1110.706909179688	840.0158081054688	126.934455871582	1077.764770507812	825.1007690429688	191.7097778320312	1012.170166015625	984.1880493164062	191.5330505371094	1120.47607421875	667.9924926757812	124.4224090576172	1137.269165039062	736.8441772460938	140.92529296875	1085.268676757812	735.9391479492188	186.9378051757812	964.1986083984375	1598.912963867188	14.9343729019165	1101.476928710938	1592.696166992188	-129.5809326171875	1097.087524414062	1604.124877929688	-7.1689133644104	952.7012939453125	1583.301147460938	-145.4079895019531	968.5535888671875	949.0535278320312	105.1400604248047	1099.046997070312	963.9224243164062	50.69807434082031	1079.001098632812	969.6019897460938	-211.2227478027344	1124.129516601562	484.4011535644531	-236.9281005859375	1084.119018554688	618.5059814453125	-247.4239196777344	954.5521240234375	56.12055587768555	-223.629150390625	1034.236938476562	263.7865600585938	-245.3253326416016	1164.192504882812	58.55823135375977	-161.8598480224609	1088.083129882812	57.93296813964844	-129.4613647460938	1080.653442382812	42.9395637512207	-233.7639312744141	915.8533325195312	60.51335906982422	-167.3040924072266	1056.997680664062	464.9712829589844	69.36427307128906	1064.954345703125	729.9320068359375	100.0510559082031	1049.349609375	47.65015029907227	17.99850654602051	1079.210083007812	341.4632568359375	46.96743392944336	1228.10546875	25.23022842407227	-42.6611328125	1150.358764648438	29.05648422241211	-75.15083312988281	1132.198974609375	39.80496597290039	22.41339874267578	974.5924072265625	31.3428955078125	-32.81293869018555	960.4640502929688	963.1153564453125	-254.818359375	nan	nan	nan	
219	2.18	877.550048828125	971.2186279296875	-8.343829154968262	869.1513061523438	962.4240112304688	-140.8804931640625	882.2666015625	1053.181518554688	-67.30715942382812	1126.670043945312	1211.967895507812	-62.3308219909668	877.6299438476562	1155.20458984375	-66.21797943115234	909.1317749023438	1405.496948242188	-66.47319793701172	1068.182861328125	1328.78271484375	-60.75209808349609	870.6763305664062	1255.80615234375	-3.030320405960083	898.6748657226562	1371.0615234375	-172.2808532714844	988.2409057617188	1388.660034179688	-221.1226196289062	968.5859375	1272.906860351562	-294.085205078125	999.0029296875	1075.765380859375	-315.1228637695312	929.1359252929688	1053.536254882812	-270.0355224609375	1109.783935546875	883.2359619140625	-241.9862213134766	1078.044067382812	857.2675170898438	-313.7254943847656	1030.792846679688	975.2188110351562	-317.3659973144531	1154.390991210938	711.681396484375	-241.3089447021484	1109.58642578125	779.5726928710938	-300.5934753417969	1154.111450195312	795.6063232421875	-256.4280395507812	969.9331665039062	1379.324584960938	94.08483123779297	962.0548095703125	1311.994384765625	152.2037353515625	979.1185913085938	1049.7060546875	182.6081390380859	945.2533569335938	1042.006469726562	94.90608215332031	1106.9560546875	840.1227416992188	127.6987228393555	1074.009765625	825.2996826171875	192.4934539794922	1008.225219726562	984.2633056640625	192.0462951660156	1116.925048828125	668.1036987304688	125.5956344604492	1133.60400390625	737.0223388671875	141.9117889404297	1081.731567382812	736.186767578125	187.9957885742188	959.6077270507812	1598.490112304688	15.74923324584961	1096.92919921875	1592.952880859375	-128.8434753417969	1092.481567382812	1603.850219726562	-6.340316772460938	948.1041870117188	1583.526733398438	-144.6498260498047	965.1022338867188	948.75732421875	105.5433120727539	1095.445434570312	964.0049438476562	50.7810173034668	1074.457885742188	969.7021484375	-211.0849761962891	1120.591064453125	484.6124572753906	-236.7412261962891	1080.626831054688	618.759521484375	-246.9173889160156	941.4392700195312	60.19279861450195	-223.9465179443359	1025.88427734375	265.8861999511719	-245.4402160644531	1151.096923828125	59.09650802612305	-162.5838775634766	1075.07373046875	59.24246215820312	-129.9448852539062	1067.3125	45.01040649414062	-234.4055328369141	902.9264526367188	65.00054931640625	-167.552490234375	1055.087036132812	464.9696960449219	69.48081970214844	1061.861694335938	729.9085693359375	99.98715972900391	1049.27783203125	47.66339874267578	18.04289245605469	1077.896728515625	341.5713195800781	47.02817916870117	1228.0810546875	25.23990440368652	-42.7093391418457	1150.338012695312	29.06802368164062	-75.12767791748047	1132.231079101562	39.93301391601562	22.36850166320801	974.6421508789062	31.26128768920898	-32.79006195068359	955.6632690429688	963.1903076171875	-254.5210418701172	nan	nan	nan	
220	2.19	873.7222900390625	970.773193359375	-7.72027587890625	864.5902099609375	962.1821899414062	-140.3500823974609	878.2494506835938	1052.874267578125	-66.85752868652344	1122.234252929688	1212.196899414062	-62.19375991821289	873.1141967773438	1154.94970703125	-65.75432586669922	904.3992919921875	1405.290405273438	-66.18060302734375	1063.531127929688	1328.923583984375	-60.59524917602539	866.1754760742188	1255.529907226562	-2.785021305084229	893.9325561523438	1370.931640625	-172.0044860839844	983.4010620117188	1388.646728515625	-220.8808135986328	963.7854614257812	1272.983276367188	-293.9296875	993.871826171875	1075.734741210938	-315.1531677246094	924.341552734375	1053.5888671875	-269.5815124511719	1105.211059570312	883.3248291015625	-242.5817565917969	1072.567749023438	856.9962158203125	-313.7734069824219	1025.56787109375	975.1160278320312	-317.4270629882812	1149.752197265625	711.8401489257812	-241.609130859375	1104.1337890625	779.3048095703125	-300.5923461914062	1149.262939453125	795.5467529296875	-257.1329040527344	965.1666259765625	1379.274780273438	94.25713348388672	957.359619140625	1311.953247070312	152.3731994628906	974.935546875	1049.78271484375	182.9497528076172	941.3877563476562	1041.80810546875	95.18309020996094	1103.149047851562	840.3408203125	128.4975738525391	1070.135986328125	825.5740356445312	193.2650451660156	1004.055969238281	984.390869140625	192.5018615722656	1113.394653320312	668.3197631835938	126.7554016113281	1129.928833007812	737.3269653320312	142.9460754394531	1078.118896484375	736.5120849609375	189.0294799804688	954.80419921875	1598.043090820312	16.49378204345703	1092.237426757812	1593.215942382812	-128.1363067626953	1087.675415039062	1603.530517578125	-5.522077083587646	943.3616943359375	1583.76708984375	-143.9642791748047	961.6571044921875	948.4583740234375	105.9353637695312	1091.834594726562	964.0834350585938	50.81857681274414	1069.885375976562	969.7769165039062	-210.9743957519531	1116.619873046875	484.6758422851562	-236.6078033447266	1076.92578125	618.9634399414062	-246.4315643310547	926.97412109375	64.86118316650391	-224.0639801025391	1016.6591796875	268.1673278808594	-245.4565887451172	1136.64404296875	59.23019027709961	-163.4292297363281	1060.753173828125	60.46866989135742	-130.449462890625	1052.469970703125	47.23912811279297	-235.0698547363281	888.798828125	70.17156219482422	-167.5303192138672	1053.142944335938	464.9655456542969	69.565185546875	1058.713500976562	729.8595581054688	99.91155242919922	1049.204467773438	47.66961288452148	18.09986114501953	1076.576293945312	341.6890258789062	47.07769775390625	1228.05224609375	25.24917793273926	-42.7867317199707	1150.3173828125	29.10978126525879	-75.10783386230469	1132.2509765625	40.01552200317383	22.34659004211426	974.6981201171875	31.19050025939941	-32.75938034057617	950.85791015625	963.2756958007812	-254.2307434082031	nan	nan	nan	
